<?xml version="1.0"?>
<svg xmlns="http://www.w3.org/2000/svg" id="Capa_1" enable-background="new 0 0 508 508" height="512px" viewBox="0 0 508 508" width="512px" class=""><g><g><g id="LINES_42_"><path d="m188.687 165.401h15v15h-15z" data-original="#000000" class="active-path" data-old_color="#000000" fill="#4682B4"/><path d="m419.481 165.401-128.334-95.929c2.761-5.55 4.322-11.797 4.322-18.404 0-22.866-18.603-41.469-41.469-41.469s-41.469 18.603-41.469 41.469c0 6.607 1.561 12.854 4.322 18.404l-128.334 95.929h-88.519v333h508v-333zm-165.481-140.802c14.595 0 26.469 11.874 26.469 26.469 0 14.596-11.874 26.47-26.469 26.47s-26.469-11.874-26.469-26.47c0-14.595 11.874-26.469 26.469-26.469zm239 458.802h-478v-303h144.687 14v-15h-14-46.115l112.273-83.923c7.401 6.857 17.294 11.06 28.156 11.06s20.755-4.203 28.156-11.06l112.273 83.923h-160.743-15v15h15 259.313z" data-original="#000000" class="active-path" data-old_color="#000000" fill="#4682B4"/><path d="m84.207 195.401v7.5c0 25.754-20.953 46.707-46.707 46.707h-7.5v164.586h7.5c25.754 0 46.707 20.953 46.707 46.707v7.5h236.479v-15h-221.932c-3.412-28.044-25.71-50.342-53.754-53.754v-135.492c28.044-3.412 50.342-25.71 53.754-53.754h310.492c3.412 28.044 25.71 50.342 53.754 53.754v135.492c-28.044 3.412-50.342 25.71-53.754 53.754h-43.56v15h58.106v-7.5c0-25.754 20.953-46.707 46.707-46.707h7.5v-164.586h-7.5c-25.754 0-46.707-20.953-46.707-46.707v-7.5z" data-original="#000000" class="active-path" data-old_color="#000000" fill="#4682B4"/><path d="m335.687 453.401h15v15h-15z" data-original="#000000" class="active-path" data-old_color="#000000" fill="#4682B4"/><path d="m47.964 209.401h15v15h-15z" data-original="#000000" class="active-path" data-old_color="#000000" fill="#4682B4"/><path d="m449.939 209.401h15v15h-15z" data-original="#000000" class="active-path" data-old_color="#000000" fill="#4682B4"/><path d="m254.464 40.016h15v15h-15z" data-original="#000000" class="active-path" data-old_color="#000000" fill="#4682B4"/><path d="m47.964 438.401h15v15h-15z" data-original="#000000" class="active-path" data-old_color="#000000" fill="#4682B4"/><path d="m449.939 438.401h15v15h-15z" data-original="#000000" class="active-path" data-old_color="#000000" fill="#4682B4"/><path d="m162.154 367.448v-71.094h-14.648v28.808h-28.565v-28.808h-14.648v71.094h14.648v-30.469h28.565v30.469z" data-original="#000000" class="active-path" data-old_color="#000000" fill="#4682B4"/><path d="m218.868 299.65c-4.606-2.848-9.872-4.272-15.796-4.272-5.925 0-11.19 1.425-15.796 4.272-4.606 2.849-8.171 6.934-10.693 12.256-2.523 5.322-3.784 11.483-3.784 18.481v3.516c.032 6.836 1.318 12.883 3.857 18.14 2.539 5.258 6.119 9.302 10.742 12.134 4.622 2.832 9.879 4.248 15.771 4.248 5.957 0 11.238-1.432 15.845-4.297 4.605-2.864 8.146-6.934 10.62-12.207s3.711-11.409 3.711-18.408v-3.174c0-6.966-1.262-13.11-3.784-18.433-2.523-5.323-6.087-9.408-10.693-12.256zm-.366 34.106c-.033 7.39-1.367 13.013-4.004 16.87s-6.413 5.786-11.328 5.786c-5.014 0-8.854-2.002-11.523-6.006-2.67-4.004-4.004-9.635-4.004-16.895v-3.467c.032-7.389 1.383-12.996 4.053-16.821 2.669-3.824 6.461-5.737 11.377-5.737 4.947 0 8.756 1.938 11.426 5.811 2.669 3.874 4.004 9.538 4.004 16.992v3.467z" data-original="#000000" class="active-path" data-old_color="#000000" fill="#4682B4"/><path d="m271.578 367.448v-59.229h21.777v-11.865h-57.91v11.865h21.485v59.229z" data-original="#000000" class="active-path" data-old_color="#000000" fill="#4682B4"/><path d="m349.264 308.219v-11.865h-47.559v71.094h47.656v-11.768h-33.007v-19.043h28.125v-11.475h-28.125v-16.943z" data-original="#000000" class="active-path" data-old_color="#000000" fill="#4682B4"/><path d="m357.955 296.354v71.094h45.752v-11.768h-31.103v-59.326z" data-original="#000000" class="active-path" data-old_color="#000000" fill="#4682B4"/><path d="m379.361 255.683h15v15h-15z" data-original="#000000" class="active-path" data-old_color="#000000" fill="#4682B4"/><path d="m104.293 255.683h260.068v15h-260.068z" data-original="#000000" class="active-path" data-old_color="#000000" fill="#4682B4"/><path d="m104.293 393.119h299.414v15h-299.414z" data-original="#000000" class="active-path" data-old_color="#000000" fill="#4682B4"/></g></g></g> </svg>
